<svg width="512" height="512" viewBox="0 0 512 512" fill="none" xmlns="http://www.w3.org/2000/svg" xmlns:xlink="http://www.w3.org/1999/xlink" class=""><rect id="r9" width="512" height="512" x="0" y="0" rx="128" fill="url(#ra)" stroke="#FFFFFF" stroke-width="0" stroke-opacity="100%" paint-order="stroke"></rect><rect width="512" height="512" x="0" y="0" fill="url(#rb)" rx="128" style="mix-blend-mode: overlay;"></rect><clipPath id="clip"><use xlink:href="#r9"></use></clipPath><defs><linearGradient id="ra" gradientUnits="userSpaceOnUse" gradientTransform="rotate(45)" style="transform-origin: center center;"><stop stop-color="#F953C6"></stop><stop offset="1" stop-color="#B91D73"></stop></linearGradient><radialGradient id="rb" cx="0" cy="0" r="1" gradientUnits="userSpaceOnUse" gradientTransform="translate(256) rotate(90) scale(512)"><stop stop-color="white"></stop><stop offset="1" stop-color="white" stop-opacity="0"></stop></radialGradient></defs><svg t="1739319031428" class="icon" viewBox="0 0 1050 1024" version="1.1" xmlns="http://www.w3.org/2000/svg" p-id="50885" xmlns:xlink="http://www.w3.org/1999/xlink" width="320" height="320" x="96" y="96" alignment-baseline="middle" style="color: rgb(255, 255, 255);"><path d="M1050.058105 334.201263v172.867369c-0.080842 83.968-67.422316 152.037053-150.501052 152.117894h-400.168421c-83.078737-0.080842-150.393263-68.149895-150.501053-152.117894v-172.867369c-0.215579-65.455158 41.175579-123.661474 102.615579-144.330105l149.638737-50.310737a308.277895 308.277895 0 0 1 194.45221 0l150.824421 50.310737c61.44 20.803368 102.804211 79.036632 102.615579 144.518737m-491.142737-25.761684c-24.279579 0-43.951158 19.887158-43.951157 44.43621v145.030737c0 24.522105 19.671579 44.409263 43.92421 44.409263 24.279579 0 43.978105-19.887158 43.978105-44.409263v-145.030737c0-24.522105-19.671579-44.436211-43.951158-44.43621m282.677895 0c-24.252632 0-43.951158 19.887158-43.951158 44.43621v145.030737c0 24.522105 19.671579 44.436211 43.951158 44.43621 24.252632 0 43.951158-19.887158 43.951158-44.43621V353.010526c0-24.522105-19.671579-44.409263-43.951158-44.409263" fill="#ffffff" p-id="50886"></path><path d="M1028.176842 629.463579a176.532211 176.532211 0 0 1-125.035789 51.846737h-407.174737c-93.642105-0.538947-169.418105-77.150316-169.984-171.816421v-176.505263c-0.161684-74.024421 46.753684-139.749053 116.304842-163.004632l152.198737-50.984421a328.596211 328.596211 0 0 1 136.811789-15.36 501.733053 501.733053 0 0 0-118.029473-38.750316A236.328421 236.328421 0 0 1 563.900632 0.269474a120.778105 120.778105 0 0 0-43.439158 55.161263h-5.658948a509.844211 509.844211 0 0 0-260.608 70.332631l-1.374315 1.050948a234.900211 234.900211 0 0 1-48.397474-61.898105A121.317053 121.317053 0 0 0 155.998316 153.061053c-1.239579 14.794105 0.269474 29.669053 4.446316 43.92421h-1.212632A519.248842 519.248842 0 0 0 3.098947 523.991579c-1.428211 12.853895-2.182737 25.788632-2.209684 38.723368v10.024421C2.56 750.672842 94.315789 915.294316 244.062316 1008.882526c62.598737 39.424 153.923368-5.712842 153.923368-80.384 0-51.846737 32.148211-94.881684 83.968-94.881684h67.368421c51.307789 0 83.806316 42.522947 83.806316 94.881684 0 74.509474 91.998316 119.808 153.923368 80.384a519.895579 519.895579 0 0 0 189.817264-211.402105 502.676211 502.676211 0 0 0 50.283789-168.367158" fill="#ffffff" p-id="50887"></path><path d="M167.612632 395.398737a57.775158 57.775158 0 0 1 16.087579-79.494737 56.400842 56.400842 0 0 1 81.219368 20.560842l-97.28 58.933895z" fill="#ffffff" p-id="50888"></path></svg></svg>